<?xml version="1.0" encoding="UTF-8" standalone="no"?>
<!-- Created with Inkscape (http://www.inkscape.org/) -->

<svg
   xmlns:dc="http://purl.org/dc/elements/1.1/"
   xmlns:cc="http://creativecommons.org/ns#"
   xmlns:rdf="http://www.w3.org/1999/02/22-rdf-syntax-ns#"
   xmlns:svg="http://www.w3.org/2000/svg"
   xmlns="http://www.w3.org/2000/svg"
   xmlns:sodipodi="http://sodipodi.sourceforge.net/DTD/sodipodi-0.dtd"
   xmlns:inkscape="http://www.inkscape.org/namespaces/inkscape"
   width="11.454953mm"
   height="11.619205mm"
   viewBox="0 0 11.454953 11.619206"
   version="1.1"
   id="svg8"
   inkscape:version="0.92.4 (5da689c313, 2019-01-14)"
   sodipodi:docname="asteroom.svg">
  <defs
     id="defs2" />
  <sodipodi:namedview
     id="base"
     pagecolor="#ffffff"
     bordercolor="#666666"
     borderopacity="1.0"
     inkscape:pageopacity="0.0"
     inkscape:pageshadow="2"
     inkscape:zoom="10.661728"
     inkscape:cx="33.900578"
     inkscape:cy="24.580046"
     inkscape:document-units="mm"
     inkscape:current-layer="layer1"
     showgrid="false"
     inkscape:window-width="1920"
     inkscape:window-height="1001"
     inkscape:window-x="-9"
     inkscape:window-y="-9"
     inkscape:window-maximized="1"
     fit-margin-top="0"
     fit-margin-left="0"
     fit-margin-right="0"
     fit-margin-bottom="0"
     inkscape:snap-smooth-nodes="false">
    <inkscape:grid
       type="xygrid"
       id="grid4577"
       originx="-61.110422"
       originy="-182.69286" />
  </sodipodi:namedview>
  <metadata
     id="metadata5">
    <rdf:RDF>
      <cc:Work
         rdf:about="">
        <dc:format>image/svg+xml</dc:format>
        <dc:type
           rdf:resource="http://purl.org/dc/dcmitype/StillImage" />
        <dc:title></dc:title>
      </cc:Work>
    </rdf:RDF>
  </metadata>
  <g
     inkscape:label="Layer 1"
     inkscape:groupmode="layer"
     id="layer1"
     transform="translate(-61.110419,-102.68796)">
    <path
       style="fill:#e8d4b3;fill-opacity:1;stroke:#91715b;stroke-width:0.26458332px;stroke-linecap:butt;stroke-linejoin:miter;stroke-opacity:1"
       d="m 61.692756,109.98669 c -2.273388,-5.39908 4.566176,-9.55422 8.462316,-5.60845 3.896139,3.94577 1.613051,4.81434 1.613051,4.81434 l -1.910845,-0.62041 c 0,0 1.191176,5.33548 0.595588,5.31066 -0.595588,-0.0248 -4.590993,1.09192 -4.491728,-0.86856 0.09927,-1.96048 -1.364889,-3.25091 -1.364889,-3.25091 0,0 -2.903493,1.64921 -2.903493,0.22329 z"
       id="path816"
       inkscape:connector-curvature="0"
       sodipodi:nodetypes="cscccccsc" />
    <path
       style="fill:#3c311d;fill-opacity:1;stroke:none;stroke-width:0.99999994px;stroke-linecap:butt;stroke-linejoin:miter;stroke-opacity:1"
       d="m 4.1308594,25.232422 c 0.8642153,-0.233808 3.6744209,-1.045199 6.3730466,-2.978516 1.035997,-0.7422 0.387001,-2.426705 -0.5156248,-3.929687 -0.1527346,-0.02493 -0.2127863,0.02282 -0.375,-0.0098 -0.9965551,-0.117241 -1.8237179,-0.06826 -2.5097656,0.107422 -0.6860476,0.17568 -1.2295378,0.478092 -1.6582031,0.867187 -0.4286653,0.389096 -0.7423887,0.865665 -0.9667969,1.388672 -0.2244081,0.523008 -0.3603175,1.092507 -0.4335937,1.669922 -0.1307121,1.030009 -0.02896,2.033766 0.085937,2.884766 z"
       id="path832"
       transform="matrix(0.26458333,0,0,0.26458333,61.46941,103.30458)"
       inkscape:connector-curvature="0" />
    <path
       style="fill:#91715b;fill-opacity:1;stroke:none;stroke-width:0.99999994px;stroke-linecap:butt;stroke-linejoin:miter;stroke-opacity:1"
       d="m 4.1308594,25.232422 c -0.1148979,-0.851 -0.2166496,-1.854757 -0.085937,-2.884766 0.073276,-0.577415 0.2091856,-1.146914 0.4335937,-1.669922 0.2244082,-0.523007 0.5381316,-0.999576 0.9667969,-1.388672 0.4286653,-0.389095 0.9721555,-0.691507 1.6582031,-0.867187 0.6860477,-0.17568 1.5132105,-0.224663 2.5097656,-0.107422 0.1622137,0.03259 0.2222654,-0.01516 0.375,0.0098 -0.8860892,-1.475447 -2.015625,-2.777344 -2.015625,-2.777344 -6.0027779,0.04687 -4.5019531,9.896484 -4.5019531,9.896484 0,0 0.5181433,-0.172516 0.6601563,-0.210937 z"
       id="path822"
       transform="matrix(0.26458333,0,0,0.26458333,61.46941,103.30458)"
       inkscape:connector-curvature="0" />
    <path
       style="fill:#3c311d;fill-opacity:1;stroke:none;stroke-width:0.99999994px;stroke-linecap:butt;stroke-linejoin:miter;stroke-opacity:1"
       d="m 28.458984,14.40625 c 0.577229,0.739561 1.204604,1.609888 2.085938,3.552734 2.140172,0.362533 5.578906,1.954944 8.671875,2.375 0.12677,-0.01879 0.188066,-0.133987 0.28125,-0.203125 C 38.770125,18.817723 37.956179,17.576082 37,16.570312 c -0.509871,-0.536144 -1.054673,-1.012977 -1.634766,-1.412109 -0.580092,-0.399132 -1.196656,-0.720532 -1.849609,-0.947265 -0.652953,-0.226867 -1.342893,-0.360398 -2.072266,-0.38086 -0.729372,-0.02046 -1.49688,0.07075 -2.30664,0.291016 -0.215051,0.05892 -0.456949,0.207675 -0.677735,0.285156 z"
       id="path853"
       transform="matrix(0.26458333,0,0,0.26458333,61.46941,103.30458)"
       inkscape:connector-curvature="0" />
    <path
       style="fill:#91715b;fill-opacity:1;stroke:none;stroke-width:0.99999994px;stroke-linecap:butt;stroke-linejoin:miter;stroke-opacity:1"
       d="m 28.458984,14.40625 c 0.220786,-0.07748 0.462684,-0.226235 0.677735,-0.285156 0.80976,-0.220271 1.577268,-0.311477 2.30664,-0.291016 0.729373,0.02046 1.419313,0.153993 2.072266,0.38086 0.652953,0.226733 1.269517,0.548133 1.849609,0.947265 0.580093,0.399132 1.124895,0.875965 1.634766,1.412109 0.956179,1.00577 1.770125,2.247411 2.498047,3.560547 1.386039,-1.028377 -0.796235,-7.217003 -3.705078,-8.640625 -1.71843,-0.888226 -2.845233,-1.18272 -5.128907,-1.226562 -1.49749,0.01198 -2.238267,0.01609 -3.394531,2.453125 0.407817,0.735871 0.788477,1.175711 1.189453,1.689453 z"
       id="path832-4"
       transform="matrix(0.26458333,0,0,0.26458333,61.46941,103.30458)"
       inkscape:connector-curvature="0" />
  </g>
</svg>
