<?xml version="1.0" encoding="UTF-8" standalone="no"?>
<!-- Created with Inkscape (http://www.inkscape.org/) -->

<svg
   xmlns:dc="http://purl.org/dc/elements/1.1/"
   xmlns:cc="http://creativecommons.org/ns#"
   xmlns:rdf="http://www.w3.org/1999/02/22-rdf-syntax-ns#"
   xmlns:svg="http://www.w3.org/2000/svg"
   xmlns="http://www.w3.org/2000/svg"
   xmlns:sodipodi="http://sodipodi.sourceforge.net/DTD/sodipodi-0.dtd"
   xmlns:inkscape="http://www.inkscape.org/namespaces/inkscape"
   width="3.5238972mm"
   height="3.5238972mm"
   viewBox="0 0 3.5238973 3.5238972"
   version="1.1"
   id="svg8"
   inkscape:version="0.92.4 (5da689c313, 2019-01-14)"
   sodipodi:docname="explostion.svg">
  <defs
     id="defs2" />
  <sodipodi:namedview
     id="base"
     pagecolor="#ffffff"
     bordercolor="#666666"
     borderopacity="1.0"
     inkscape:pageopacity="0.0"
     inkscape:pageshadow="2"
     inkscape:zoom="24.958111"
     inkscape:cx="12.915481"
     inkscape:cy="8.3014583"
     inkscape:document-units="mm"
     inkscape:current-layer="layer1"
     showgrid="false"
     inkscape:window-width="1920"
     inkscape:window-height="1001"
     inkscape:window-x="-9"
     inkscape:window-y="-9"
     inkscape:window-maximized="1"
     fit-margin-top="0"
     fit-margin-left="0"
     fit-margin-right="0"
     fit-margin-bottom="0">
    <inkscape:grid
       type="xygrid"
       id="grid4577"
       originx="-59.498424"
       originy="-189.94692" />
  </sodipodi:namedview>
  <metadata
     id="metadata5">
    <rdf:RDF>
      <cc:Work
         rdf:about="">
        <dc:format>image/svg+xml</dc:format>
        <dc:type
           rdf:resource="http://purl.org/dc/dcmitype/StillImage" />
        <dc:title></dc:title>
      </cc:Work>
    </rdf:RDF>
  </metadata>
  <g
     inkscape:label="Layer 1"
     inkscape:groupmode="layer"
     id="layer1"
     transform="translate(-59.498416,-103.5292)">
    <path
       sodipodi:type="star"
       style="fill:#ff5f00;fill-opacity:0.42458101;stroke:none;stroke-width:0.59129328;stroke-miterlimit:4;stroke-dasharray:none;stroke-dashoffset:0;stroke-opacity:1"
       id="path4586-6"
       sodipodi:sides="14"
       sodipodi:cx="61.260365"
       sodipodi:cy="105.29115"
       sodipodi:r1="0.85618192"
       sodipodi:r2="0.94085926"
       sodipodi:arg1="1.008666"
       sodipodi:arg2="1.2330654"
       inkscape:flatsided="false"
       inkscape:rounded="0.4"
       inkscape:randomized="0"
       d="m 61.716701,106.01559 c -0.07381,0.0465 -0.06228,0.13437 -0.144586,0.16327 -0.08231,0.0289 -0.128249,-0.0469 -0.214926,-0.037 -0.08668,0.01 -0.11441,0.094 -0.201109,0.0844 -0.0867,-0.01 -0.09521,-0.0979 -0.17758,-0.1266 -0.08237,-0.0287 -0.143883,0.0351 -0.217801,-0.0112 -0.07392,-0.0463 -0.04331,-0.1295 -0.105061,-0.19112 -0.06176,-0.0616 -0.144859,-0.0308 -0.191355,-0.10463 -0.0465,-0.0738 0.01717,-0.13547 -0.01173,-0.21777 -0.0289,-0.0823 -0.117143,-0.0906 -0.127008,-0.1773 -0.0099,-0.0867 0.07425,-0.1146 0.08392,-0.2013 0.0097,-0.0867 -0.06623,-0.13246 -0.03751,-0.21484 0.02872,-0.0824 0.116619,-0.071 0.162948,-0.14495 0.04633,-0.0739 -0.0022,-0.14809 0.05942,-0.20984 0.06162,-0.0618 0.135892,-0.0134 0.209704,-0.0599 0.07381,-0.0465 0.06228,-0.13437 0.144586,-0.16328 0.08231,-0.0289 0.128249,0.0469 0.214926,0.037 0.08668,-0.01 0.11441,-0.094 0.201109,-0.0844 0.0867,0.01 0.09521,0.0979 0.17758,0.12661 0.08237,0.0287 0.143883,-0.0351 0.217801,0.0112 0.07392,0.0463 0.04331,0.1295 0.105061,0.19112 0.06175,0.0616 0.144859,0.0308 0.191355,0.10462 0.0465,0.0738 -0.01717,0.13547 0.01173,0.21778 0.02891,0.0823 0.117143,0.0906 0.127008,0.17729 0.0099,0.0867 -0.07425,0.1146 -0.08392,0.2013 -0.0097,0.0867 0.06622,0.13247 0.03751,0.21484 -0.02872,0.0824 -0.116619,0.071 -0.162948,0.14496 -0.04633,0.0739 0.0022,0.14808 -0.05942,0.20984 -0.06162,0.0617 -0.135891,0.0134 -0.209704,0.0599 z" />
    <circle
       style="fill:#ff0000;fill-opacity:0.1396648;stroke:none;stroke-width:1;stroke-miterlimit:4;stroke-dasharray:none;stroke-dashoffset:0;stroke-opacity:1"
       id="path817"
       cx="61.260365"
       cy="105.29115"
       r="1.7619486" />
    <path
       sodipodi:type="star"
       style="fill:#ff2b00;fill-opacity:0.24022348;stroke:none;stroke-width:0.9430657;stroke-miterlimit:4;stroke-dasharray:none;stroke-dashoffset:0;stroke-opacity:1"
       id="path4586"
       sodipodi:sides="14"
       sodipodi:cx="61.260365"
       sodipodi:cy="105.29115"
       sodipodi:r1="1.3655421"
       sodipodi:r2="1.5005957"
       sodipodi:arg1="1.008666"
       sodipodi:arg2="1.2330654"
       inkscape:flatsided="false"
       inkscape:rounded="0.4"
       inkscape:randomized="0"
       d="m 61.988185,106.44657 c -0.117726,0.0742 -0.09933,0.21431 -0.230603,0.26041 -0.131275,0.0461 -0.204547,-0.0748 -0.34279,-0.059 -0.138242,0.0157 -0.182475,0.14999 -0.320753,0.13457 -0.138278,-0.0154 -0.151846,-0.15612 -0.283226,-0.20193 -0.131379,-0.0458 -0.229482,0.056 -0.347375,-0.0179 -0.117893,-0.0739 -0.06907,-0.20655 -0.167564,-0.30482 -0.09849,-0.0983 -0.231038,-0.0491 -0.305196,-0.16687 -0.07416,-0.11773 0.02739,-0.21606 -0.01872,-0.34734 -0.0461,-0.13127 -0.186833,-0.14452 -0.202568,-0.28277 -0.01573,-0.13824 0.11842,-0.18278 0.133842,-0.32105 0.01542,-0.13828 -0.105624,-0.21128 -0.05982,-0.34266 0.0458,-0.13138 0.185998,-0.1133 0.259889,-0.23119 0.07389,-0.11789 -0.0035,-0.23618 0.09478,-0.33468 0.09827,-0.0985 0.216736,-0.0214 0.334461,-0.0955 0.117726,-0.0742 0.09933,-0.21431 0.230603,-0.26041 0.131275,-0.0461 0.204547,0.0748 0.34279,0.059 0.138242,-0.0157 0.182475,-0.14999 0.320753,-0.13457 0.138278,0.0154 0.151846,0.15613 0.283226,0.20193 0.131379,0.0458 0.229482,-0.056 0.347375,0.0179 0.117893,0.0739 0.06907,0.20654 0.167564,0.30482 0.09849,0.0983 0.231038,0.0492 0.305196,0.16687 0.07416,0.11773 -0.02739,0.21606 0.01872,0.34733 0.0461,0.13128 0.186833,0.14453 0.202568,0.28277 0.01573,0.13824 -0.11842,0.18278 -0.133842,0.32106 -0.01542,0.13828 0.105625,0.21128 0.05982,0.34266 -0.04581,0.13137 -0.185998,0.11329 -0.259889,0.23119 -0.07389,0.11789 0.0035,0.23618 -0.09478,0.33467 -0.09827,0.0985 -0.216736,0.0214 -0.334461,0.0955 z" />
    <circle
       style="fill:#ff5f00;fill-opacity:0.15083797;stroke:none;stroke-width:0.69014084;stroke-miterlimit:4;stroke-dasharray:none;stroke-dashoffset:0;stroke-opacity:1"
       id="path817-1"
       cx="61.260365"
       cy="105.29115"
       r="1.2159927" />
    <circle
       style="fill:#ffa100;fill-opacity:0.26256984;stroke:none;stroke-width:0.4295775;stroke-miterlimit:4;stroke-dasharray:none;stroke-dashoffset:0;stroke-opacity:1"
       id="path817-1-9"
       cx="61.260365"
       cy="105.29115"
       r="0.75689352" />
    <path
       sodipodi:type="star"
       style="fill:#ffda00;fill-opacity:0.42458102;stroke:none;stroke-width:0.33335727;stroke-miterlimit:4;stroke-dasharray:none;stroke-dashoffset:0;stroke-opacity:1"
       id="path4586-6-1"
       sodipodi:sides="14"
       sodipodi:cx="61.260365"
       sodipodi:cy="105.29115"
       sodipodi:r1="0.48269531"
       sodipodi:r2="0.53043443"
       sodipodi:arg1="1.008666"
       sodipodi:arg2="1.2330654"
       inkscape:flatsided="false"
       inkscape:rounded="0.4"
       inkscape:randomized="0"
       d="m 61.517636,105.69957 c -0.04161,0.0262 -0.03511,0.0758 -0.08151,0.0921 -0.0464,0.0163 -0.0723,-0.0264 -0.12117,-0.0209 -0.04887,0.006 -0.0645,0.053 -0.113381,0.0476 -0.04888,-0.005 -0.05367,-0.0552 -0.100115,-0.0714 -0.04644,-0.0162 -0.08112,0.0198 -0.122791,-0.006 -0.04167,-0.0261 -0.02441,-0.073 -0.05923,-0.10774 -0.03482,-0.0347 -0.08167,-0.0174 -0.107881,-0.059 -0.02621,-0.0416 0.0097,-0.0764 -0.0066,-0.12278 -0.0163,-0.0464 -0.06604,-0.0511 -0.0716,-0.0999 -0.0056,-0.0489 0.04186,-0.0646 0.04731,-0.11349 0.0055,-0.0489 -0.03734,-0.0747 -0.02114,-0.12112 0.01619,-0.0464 0.06575,-0.04 0.09187,-0.0817 0.02612,-0.0417 -0.0012,-0.0835 0.0335,-0.11831 0.03474,-0.0348 0.07661,-0.008 0.118226,-0.0338 0.04161,-0.0262 0.03511,-0.0757 0.08151,-0.0921 0.0464,-0.0163 0.0723,0.0264 0.12117,0.0209 0.04887,-0.006 0.0645,-0.053 0.113381,-0.0476 0.04888,0.005 0.05367,0.0552 0.100115,0.0714 0.04644,0.0162 0.08112,-0.0198 0.122791,0.006 0.04167,0.0261 0.02441,0.073 0.05923,0.10775 0.03482,0.0347 0.08167,0.0174 0.107882,0.059 0.02621,0.0416 -0.0097,0.0764 0.0066,0.12277 0.0163,0.0464 0.06604,0.0511 0.0716,0.1 0.0056,0.0489 -0.04186,0.0646 -0.04731,0.11348 -0.0055,0.0489 0.03734,0.0747 0.02115,0.12113 -0.01619,0.0464 -0.06575,0.0401 -0.09187,0.0817 -0.02612,0.0417 0.0012,0.0835 -0.0335,0.1183 -0.03474,0.0348 -0.07661,0.008 -0.118227,0.0338 z" />
  </g>
</svg>
