<?xml version="1.0" encoding="UTF-8" standalone="no"?>
<!-- Created with Inkscape (http://www.inkscape.org/) -->

<svg
   xmlns:dc="http://purl.org/dc/elements/1.1/"
   xmlns:cc="http://creativecommons.org/ns#"
   xmlns:rdf="http://www.w3.org/1999/02/22-rdf-syntax-ns#"
   xmlns:svg="http://www.w3.org/2000/svg"
   xmlns="http://www.w3.org/2000/svg"
   xmlns:sodipodi="http://sodipodi.sourceforge.net/DTD/sodipodi-0.dtd"
   xmlns:inkscape="http://www.inkscape.org/namespaces/inkscape"
   width="55.796768mm"
   height="63.218403mm"
   viewBox="0 0 55.796768 63.218403"
   version="1.1"
   id="svg8"
   inkscape:version="0.92.4 (5da689c313, 2019-01-14)"
   sodipodi:docname="drawing.svg">
  <defs
     id="defs2" />
  <sodipodi:namedview
     id="base"
     pagecolor="#ffffff"
     bordercolor="#666666"
     borderopacity="1.0"
     inkscape:pageopacity="0.0"
     inkscape:pageshadow="2"
     inkscape:zoom="0.66635802"
     inkscape:cx="207.93584"
     inkscape:cy="11.66626"
     inkscape:document-units="mm"
     inkscape:current-layer="layer1"
     showgrid="false"
     inkscape:window-width="1920"
     inkscape:window-height="1001"
     inkscape:window-x="-9"
     inkscape:window-y="-9"
     inkscape:window-maximized="1"
     fit-margin-top="0"
     fit-margin-left="0"
     fit-margin-right="0"
     fit-margin-bottom="0">
    <inkscape:grid
       type="xygrid"
       id="grid4577"
       originx="-49.983642"
       originy="-145.4133" />
  </sodipodi:namedview>
  <metadata
     id="metadata5">
    <rdf:RDF>
      <cc:Work
         rdf:about="">
        <dc:format>image/svg+xml</dc:format>
        <dc:type
           rdf:resource="http://purl.org/dc/dcmitype/StillImage" />
        <dc:title></dc:title>
      </cc:Work>
    </rdf:RDF>
  </metadata>
  <g
     inkscape:label="Layer 1"
     inkscape:groupmode="layer"
     id="layer1"
     transform="translate(-49.983642,-88.368296)">
    <path
       style="fill:#ffce00;fill-opacity:1;stroke:#ff0000;stroke-width:3.77952766;stroke-linecap:butt;stroke-linejoin:miter;stroke-miterlimit:4;stroke-dasharray:none;stroke-dashoffset:0;stroke-opacity:1"
       d="M 302.03516,338.64062 201.86135,550.01959 H 389.9551 Z"
       id="path3717"
       transform="scale(0.26458333)"
       inkscape:connector-curvature="0"
       sodipodi:nodetypes="cccc" />
    <path
       inkscape:connector-curvature="0"
       style="fill:#d67500;fill-opacity:1;stroke:#a53f00;stroke-width:1;stroke-linecap:butt;stroke-linejoin:miter;stroke-miterlimit:4;stroke-dasharray:none;stroke-dashoffset:0;stroke-opacity:1"
       d="m 53.409143,145.526 -2.627747,5.54488 54.255604,-1.06919 -1.86139,-4.47569 z"
       id="path3717-9" />
    <path
       style="fill:#df0000;fill-opacity:1;stroke:#940000;stroke-width:3.77952766;stroke-linecap:butt;stroke-linejoin:miter;stroke-miterlimit:4;stroke-dasharray:none;stroke-dashoffset:0;stroke-opacity:1"
       d="m 266.80664,412.97656 a 18.571429,18.571429 0 0 0 0.78125,1.36328 18.571429,18.571429 0 0 0 1.07813,1.50977 18.571429,18.571429 0 0 0 1.22656,1.39453 18.571429,18.571429 0 0 0 1.35742,1.26563 18.571429,18.571429 0 0 0 1.47852,1.12304 18.571429,18.571429 0 0 0 1.58203,0.97071 18.571429,18.571429 0 0 0 1.67187,0.80664 18.571429,18.571429 0 0 0 1.74414,0.63672 18.571429,18.571429 0 0 0 1.79883,0.45898 18.571429,18.571429 0 0 0 1.83399,0.27734 18.571429,18.571429 0 0 0 1.85546,0.0937 18.571429,18.571429 0 0 0 1.3125,-0.0469 18.571429,18.571429 0 0 0 1.84375,-0.22266 18.571429,18.571429 0 0 0 1.81055,-0.4082 18.571429,18.571429 0 0 0 1.76172,-0.58399 18.571429,18.571429 0 0 0 1.69531,-0.75976 18.571429,18.571429 0 0 0 1.60938,-0.92188 18.571429,18.571429 0 0 0 1.50976,-1.08007 18.571429,18.571429 0 0 0 1.39453,-1.22657 18.571429,18.571429 0 0 0 1.26563,-1.35742 18.571429,18.571429 0 0 0 1.12305,-1.47851 18.571429,18.571429 0 0 0 0.9707,-1.58204 18.571429,18.571429 0 0 0 0.80859,-1.67187 18.571429,18.571429 0 0 0 0.63672,-1.74414 18.571429,18.571429 0 0 0 0.45899,-1.79883 18.571429,18.571429 0 0 0 0.27734,-1.83398 18.571429,18.571429 0 0 0 0.0918,-1.85547 18.571429,18.571429 0 0 0 -0.0469,-1.3125 18.571429,18.571429 0 0 0 -0.22266,-1.84375 18.571429,18.571429 0 0 0 -0.40624,-1.81055 18.571429,18.571429 0 0 0 -0.58594,-1.76172 18.571429,18.571429 0 0 0 -0.75782,-1.69531 18.571429,18.571429 0 0 0 -0.92382,-1.60938 18.571429,18.571429 0 0 0 -1.08008,-1.50976 18.571429,18.571429 0 0 0 -1.22461,-1.39453 18.571429,18.571429 0 0 0 -1.35938,-1.26563 18.571429,18.571429 0 0 0 -1.47656,-1.12304 18.571429,18.571429 0 0 0 -1.58398,-0.97071 18.571429,18.571429 0 0 0 -1.66992,-0.80859 18.571429,18.571429 0 0 0 -1.74415,-0.63672 18.571429,18.571429 0 0 0 -1.79882,-0.45898 18.571429,18.571429 0 0 0 -1.83594,-0.27735 18.571429,18.571429 0 0 0 -1.85352,-0.0918 18.571429,18.571429 0 0 0 -1.31445,0.0469 18.571429,18.571429 0 0 0 -1.8418,0.22266 18.571429,18.571429 0 0 0 -0.52539,0.11718 z"
       id="path4572"
       transform="scale(0.26458333)"
       inkscape:connector-curvature="0" />
    <path
       style="fill:#df0000;fill-opacity:1;stroke:#940000;stroke-width:3.77952766;stroke-linecap:butt;stroke-linejoin:miter;stroke-miterlimit:4;stroke-dasharray:none;stroke-dashoffset:0;stroke-opacity:1"
       d="m 344.02734,439.59961 a 18.571429,18.571429 0 0 0 -0.66601,0.29687 18.571429,18.571429 0 0 0 -1.60938,0.92383 18.571429,18.571429 0 0 0 -1.50976,1.08008 18.571429,18.571429 0 0 0 -1.39453,1.22461 18.571429,18.571429 0 0 0 -1.26563,1.35938 18.571429,18.571429 0 0 0 -1.12305,1.47851 18.571429,18.571429 0 0 0 -0.9707,1.58203 18.571429,18.571429 0 0 0 -0.80859,1.67188 18.571429,18.571429 0 0 0 -0.63672,1.74414 18.571429,18.571429 0 0 0 -0.45899,1.79687 18.571429,18.571429 0 0 0 -0.27734,1.83594 18.571429,18.571429 0 0 0 -0.0918,1.85352 18.571429,18.571429 0 0 0 0.0469,1.31445 18.571429,18.571429 0 0 0 0.22266,1.84375 18.571429,18.571429 0 0 0 0.40624,1.81055 18.571429,18.571429 0 0 0 0.58594,1.76171 18.571429,18.571429 0 0 0 0.75782,1.69532 18.571429,18.571429 0 0 0 0.92382,1.60937 18.571429,18.571429 0 0 0 1.08008,1.50977 18.571429,18.571429 0 0 0 1.22461,1.39453 18.571429,18.571429 0 0 0 1.35938,1.26562 18.571429,18.571429 0 0 0 1.47656,1.12305 18.571429,18.571429 0 0 0 1.58398,0.9707 18.571429,18.571429 0 0 0 1.66992,0.80664 18.571429,18.571429 0 0 0 1.74415,0.63672 18.571429,18.571429 0 0 0 1.79882,0.46094 18.571429,18.571429 0 0 0 1.83594,0.27734 18.571429,18.571429 0 0 0 1.85352,0.0918 18.571429,18.571429 0 0 0 1.31445,-0.0469 18.571429,18.571429 0 0 0 1.8418,-0.22266 18.571429,18.571429 0 0 0 1.8125,-0.40625 18.571429,18.571429 0 0 0 1.51562,-0.50391 z"
       id="path4575"
       transform="scale(0.26458333)"
       inkscape:connector-curvature="0" />
    <circle
       style="fill:#df0000;fill-opacity:1;stroke:#940000;stroke-width:1;stroke-miterlimit:4;stroke-dasharray:none;stroke-dashoffset:0;stroke-opacity:1"
       id="path4549"
       cx="71.201263"
       cy="135.84039"
       r="4.6774554" />
  </g>
</svg>
